<?xml version="1.0" encoding="UTF-8"?>
<svg id="Layer_1" xmlns="http://www.w3.org/2000/svg" version="1.1" viewBox="0 0 1920 1080">
  <!-- Generator: Adobe Illustrator 29.8.1, SVG Export Plug-In . SVG Version: 2.1.1 Build 2)  -->
  <defs>
    <style>
      .st0 {
        fill: #0e5547;
      }

      .st1 {
        fill: #b18548;
      }
    </style>
  </defs>
  <path class="st0" d="M1210.38,236.28l-30.54,19.58c-1.33.86-2.09,2.37-1.98,3.95l.46,6.38c.03.45.5.74.92.57,1.39-.57,3.84-1.37,7.36-2.42,3.15-.92,5.12.35,5.85,3.54.87,3.82-.11,7.08-2.94,9.79-.41.39-.91.69-1.46.87-.12.04-2.12.66-5.99,1.86-2.06.63-3.06,2.02-3.01,4.15.23,9.08.41,17.06.54,23.95.09,4.83.13,10.29-4.73,13.27-.49.3-1.13.12-1.38-.39-8.33-16.79-13.39-34.66-19.31-53.43-.12-.37-.58-.49-.87-.22-1.53,1.44-2.85,2.56-3.94,3.37-4.03,2.95-11.31,7.92-21.85,14.89-2.89,1.92-3.51,4.51-3.43,8.07.09,3.84-.19,9.07-2.06,12.14-2.88,4.71-6.78.48-8.45-2.53-.14-.24-1.41-3.3-3.81-9.19-1.81-4.45-5.65-4.34-9.55-5.42-.38-.1-.7-.33-.93-.65-.93-1.33-.84-2.81.29-4.45.31-.44.18-1.05-.27-1.33-3.92-2.5-7.81-5.17-11.67-8.01-1.45-1.07-2.51-2.21-3.17-3.42-.56-1.02-.22-2.3.78-2.91,2.85-1.75,6.02-2.19,9.53-1.32,13.47,3.35,21.04,5.21,22.72,5.58,2.35.53,4.47-.48,6.38-2.16,3.75-3.29,8.12-7.31,13.11-12.06.18-.16.13-.45-.09-.55-11.84-5.17-24.16-10.74-36.97-16.69-6.83-3.18-12.03-5.86-15.59-8.03-1.51-.92-2.36-3.1-.46-4.02,7.98-3.83,13.2-2.37,22.78.2,8.34,2.24,15.89,4.33,22.65,6.26.39.11.8-.07.97-.43,1.58-3.21,3.21-5.76,4.88-7.64,4.62-5.2,12.16-.83,10.43,5.71-.49,1.87-1.07,3.56-1.73,5.09-.19.44.02.95.46,1.13,5.37,2.11,10.51,3.99,15.42,5.66,1.21.41,2.37.14,3.48-.79,3.46-2.9,6.98-5.72,10.57-8.47,12.43-9.86,26.06-17.64,41.33-19.67,2.09-.28,3.94-.13,5.55.44,1.32.47,2.18,1.66,2.1,2.91-.09,1.44-.51,2.79-1.24,4.05-2.87,4.93-6.58,9.2-11.14,12.79h0Z"/>
  <path class="st0" d="M659.95,728.14c3.75.17,6.21.34,7.38.49,13.37,1.76,18.22,21.96,8.53,30.25-.55.47-1.06.96-1.55,1.48-.17.18-.11.48.11.59.49.23,1.79,1.14,3.9,2.73,3.78,2.85,6.03,6.36,6.74,10.55,1.07,10.06-3.16,19.38-13.21,21.61-2.47.55-5.76.87-9.85.96-5.03.11-14.6.06-28.71-.15-.24,0-.44-.2-.44-.44v-67.55c0-.24.19-.43.43-.43l26.67-.09M646.2,740.97l-.04,14.18c-.01.2.16.36.35.36l12.39.05c4.77.01,8.64-3.13,8.66-7.03v-.78c0-3.9-3.84-7.08-8.6-7.09l-12.39-.05c-.2,0-.36.16-.37.36M646.18,768.38l.06,15.46c0,.21.17.38.38.38l16.16-.05c4.7-.02,8.51-3.49,8.49-7.76v-.76c-.02-4.27-3.84-7.72-8.55-7.7l-16.16.05c-.21,0-.38.17-.38.38h0Z"/>
  <path class="st0" d="M757.96,797.55c-2.88-.01-7.29.43-9.68-1.26-2.25-1.59-3.77-7.85-4.44-11.03-.07-.31-.21-.59-.43-.83-1.28-1.4-2.62-2.1-4.02-2.09-8.36.04-15.42.04-21.17,0-1.04,0-1.98.65-2.33,1.63-.83,2.31-1.72,4.71-2.68,7.21-3.07,7.96-8.44,6.2-15.66,6.03-.49,0-.82-.51-.64-.96l8.9-22.61c5.61-14.16,11.18-28.43,16.73-42.81.83-2.15,2.38-3.07,4.67-2.76.79.11,2.92.1,6.38-.03,1.32-.05,2.31.71,2.96,2.29,1.51,3.67,9.73,24.67,24.64,63.02.55,1.39.85,2.51.9,3.36.02.32-.22.6-.54.62l-3.59.21M721.48,769.65c-.08.21.08.43.3.43l15.53.05c.22,0,.38-.22.3-.43l-7.69-21.89c-.1-.28-.5-.28-.6,0l-7.84,21.84h0Z"/>
  <path class="st0" d="M1257.53,762.19c-1.85,4.45-4.54,7.54-8.07,9.26-1.79.88-3.01,1.53-3.64,1.96-.16.1-.2.32-.1.48l14.24,22.62c.27.42-.05.97-.55.95-3.55-.15-6.98-.15-10.28-.02-2.32.09-4.11-.72-5.36-2.41-1.71-2.33-3.41-4.8-5.12-7.41-1.73-2.95-3.49-6.02-5.3-9.21-2.23-3.96-8.26-2.77-13.13-2.68-.29.01-.53.25-.53.55v20.16c0,.34-.28.62-.63.62h-12.19c-.31,0-.56-.25-.56-.55v-68.01c0-.17.14-.31.31-.32,7.78-.04,15.08-.09,21.91-.15,8.73-.08,14.8.67,18.22,2.26,12.04,5.59,15.08,19.95,10.78,31.9M1219.87,741.07l.04,21.98c0,.23.18.41.41.41l14.44-.02c5.79-.01,10.48-4.55,10.47-10.13v-2.58c0-5.59-4.72-10.1-10.51-10.09l-14.44.02c-.23,0-.41.19-.41.41h0Z"/>
  <path class="st0" d="M1292.02,728.45l-.03,68.13c0,.33-.27.6-.6.6h-12.19c-.36,0-.66-.3-.66-.66l-.02-49.78.14-17.79c.01-.28.24-.51.52-.51h12.84Z"/>
  <path class="st0" d="M830.94,863.16l-.14-12.9c0-.21-.17-.38-.38-.38h-12.96c-.25,0-.46.21-.46.47v11.85c0,.67-.54,1.21-1.21,1.21h-4.66c-.85,0-1.54-.69-1.54-1.54l.03-4.24-.1-27.65c0-.39.31-.7.7-.7h6.03c.36,0,.65.29.65.65v12.3c0,.26.21.47.47.47h12.79c.33,0,.6-.27.6-.6v-12.36c0-.3.24-.55.54-.55h6.28c.33,0,.6.27.6.6v33.01c0,.25-.21.46-.46.45l-6.78-.09h0Z"/>
  <path class="st1" d="M1143.34,842.41c.72-1.09,1.85-1.67,3.38-1.75,4.75-.15,9.51-.2,14.28-.15,52.34.53,92.51.66,120.5.41,3.5-.03,6.8.22,9.9.76.92.16,1.37,1.22.84,2l-.05.06c-.71,1.03-1.88,1.65-3.13,1.64-44.96-.42-89.06-.58-132.31-.48-4.81,0-8.28-.07-10.41-.24-1.77-.15-2.77-.9-3-2.25h0Z"/>
  <path class="st1" d="M776.29,840.89c1.66.29,2.75.9,3.28,1.85-.74,2.59-6,2.12-8.57,2.12-59.98-.03-105.9.04-137.75.21-1.51,0-2.88-.35-4.1-1.06-.67-.39-.72-1.34-.09-1.8.93-.68,2.07-1.02,3.43-1.02,47.93-.1,95.86-.2,143.8-.3h0Z"/>
  <path class="st1" d="M1145.33,396.39c1.57,2.42,1.21,5.62-.01,8.27-15.83,34.57-38.02,64.6-66.59,90.08-15.17,13.53-31.79,25.75-49.85,36.65-35.97,21.71-73.18,37.14-114.14,44.09-21.67,3.68-43.46,5.89-65.37,6.64-6.68.23-13.18.14-19.5-.27-16.05-1.03-26.44-1.71-31.17-2.04-6.49-.44-9.53.05-12.4-6.03-16.24-34.4-22.25-72.49-18.34-110.57,8.49-82.61,67.75-154.72,149.22-174.77,15.55-3.83,31.73-5.95,48.55-6.36,44.43-1.09,83.78,11.69,118.07,38.34,11.09,8.61,21.68,18.78,31.75,30.51,9.5,11.05,17.19,22.11,23.08,33.18,3.81,7.18,6.05,11.27,6.7,12.28M801.05,460.69l8.69,8.37c.41.39,1.05.39,1.46,0l131.58-125.83c.34-.33.88-.33,1.23,0l131.33,126.45c.46.44,1.18.44,1.64,0l8.59-8.22c.33-.31.33-.84.01-1.16l-141.24-138.92c-.23-.22-.59-.22-.81,0l-79.06,78.07c-.37.37-1.01.1-1-.43.21-10.09.17-17.91-.1-23.44-.14-2.82-1.73-4.21-4.76-4.16-4.75.07-10.75.03-18-.12-.43-.01-.79.34-.79.77.27,25.27.43,39.66.49,43.16.07,4.62-1.15,7.7-4.34,10.74-12.6,12.05-24.24,23.29-34.92,33.72-.28.28-.28.73,0,1M865.03,353.93c-.01-1.14-.93-2.04-2.07-2.03l-23.46.25c-1.13.02-2.04.94-2.03,2.07l.09,8.52c.01,1.14.93,2.04,2.07,2.03l23.46-.25c1.13-.02,2.04-.94,2.03-2.07l-.09-8.52M1069.74,365.37c.2-.19.21-.51.01-.7l-11.34-11.16c-.19-.18-.49-.18-.68,0l-11.49,10.98c-.19.19-.2.51,0,.7l11.33,11.16c.19.18.49.18.68,0l11.49-10.98M943.44,368.32c-.61.43-1.35,1.06-2.22,1.9-11.78,11.36-31.5,30.28-59.17,56.76-7.21,6.9-15.19,12.02-13.03,23.04.2,1.06.99,1.91,2.03,2.2.96.26,2.28.39,3.95.4,66.88.14,113.21.49,139,1.05,1.87.04,3.69-.2,5.44-.73.26-.07.46-.27.53-.53,2.06-7.48-2.01-11.75-6.95-16.44-22.13-21.01-44.72-43.5-67.79-67.48-.47-.49-1.23-.56-1.79-.17M1083.57,380.52c-.23-.25-.62-.26-.88-.03l-10.26,9.64c-.25.23-.26.62-.03.88l9.64,10.26c.23.25.62.26.88.03l10.26-9.64c.25-.23.26-.62.03-.88l-9.64-10.26M839.59,464.71c-.21.75-.33,3.01-.36,6.79-.17,25.01-.31,51.43-.43,79.25,0,4.04-.6,10.47,3.02,11.56,1.97.6,5.37.76,10.2.49.34-.02.63-.24.75-.55.39-.99.58-2.08.59-3.25.23-32.93.23-63.51.01-91.74-.01-1.11-.44-2.07-1.3-2.89-.22-.21-.51-.32-.81-.32l-10.89.03c-.38,0-.7.26-.78.63M1033.56,506.63c0,.28.3.45.54.32,3.57-1.9,7.1-4,10.6-6.31,1.21-.79,1.82-2.32,1.85-4.59.15-12.81.08-22.72-.2-29.73-.05-1.3-1.12-2.33-2.42-2.33h-9.68c-.38,0-.69.3-.69.68v41.96M869.4,562.68l47-3.39c.76-.06,1.34-.68,1.34-1.44-.03-19.93.01-35.05.12-45.35.05-5.53.27-9.2.64-11.02,2.54-12.42,14.91-21.3,27.32-20.26,6.69.55,12.3,3.22,16.84,7.99,4.25,4.47,6.48,10.39,6.69,17.74.37,13.58.61,23.93.72,31.04.02,1.4.2,2.59.54,3.56.1.28.42.41.67.27,21.77-11.54,36.03-19.03,42.79-22.48,2.17-1.11,3.8-2.09,4.87-2.94.9-.72,1.43-1.81,1.43-2.97v-48.74c0-.14-.11-.26-.25-.26h-150.68c-.25,0-.45.2-.45.45v97.42c0,.22.19.4.41.38h0Z"/>
  <path class="st0" d="M797.55,594.53c29.26,1.54,58.38,1.95,86.93-1.07,92.76-9.81,180.73-53.93,238.22-127.97,21.93-28.24,37.41-60.73,44.23-95.52.79-4.05,1.75-9.43,2.87-16.16.03-.15.09-.27.18-.38.39-.43,1.1-.2,1.16.38,1.26,13.5,3.34,29.24,2.5,41.3-.82,11.69-3.28,22.59-7.39,32.68-11.72,28.78-27.88,54.62-48.48,77.52-11.81,13.13-25.61,26-41.38,38.59-44.87,35.82-94.58,61.43-149.14,76.83-19.07,5.38-37.92,9.1-56.56,11.15-13.84,1.53-25.66,1.03-41.18.65-1.11-.03-2.31-.67-3.6-1.94-10.9-10.67-20.47-22.5-28.7-35.49-.16-.25.04-.59.34-.57h0Z"/>
  <path class="st0" d="M1174.14,418.7c.15.21.23.5.24.86.2,25.49.12,39.88-.25,43.15-.65,5.89-2.56,11.97-5.73,18.23-19.69,38.94-46.25,72.71-79.68,101.32-15.56,13.32-32.2,25.58-49.93,36.79-19.11,12.08-37.43,21.67-54.97,28.76-23.53,9.51-47.89,17.76-72.45,22.77-8.54,1.75-16.61,4.06-24.19.98-16.09-6.53-31.09-15.36-44.98-26.47-.47-.37-.16-1.12.43-1.07,12.2,1.08,24.31.71,36.33-1.11,81.94-12.42,153.63-46.39,215.08-101.9,25.38-22.93,46.46-48.92,63.25-77.97,6.23-10.77,10.66-21.73,13.31-32.88,1.53-6.39,2.42-10.15,2.67-11.28.09-.41.62-.52.87-.18h0Z"/>
  <path class="st0" d="M916.52,681.74c-.41-.12-.39-.71.02-.81,27.19-6.63,53.28-15.51,78.29-26.62,32.39-14.39,62.21-32.86,89.46-55.43,19.85-16.45,37.34-35.15,53.76-55.57,11.44-14.22,20.47-28.9,27.1-44.04,2.94-6.72,5.85-15.59,8.25-22.65.11-.32.58-.26.59.08,1.64,45.13-10.45,86.07-36.28,122.82-48.56,69.08-138.28,107.29-221.19,82.22h0Z"/>
  <path class="st0" d="M1164.73,659.42c0,5.87-4.76,10.63-10.63,10.63s-10.63-4.76-10.63-10.63,4.76-10.63,10.63-10.63,10.63,4.76,10.63,10.63h0Z"/>
  <path class="st0" d="M895.93,772.95h-12.8c-.31,0-.57-.26-.57-.57v-11.06c0-.34.28-.61.62-.61h26.03c.27,0,.48.21.48.47.02,8.22-.02,16.58-.11,25.07-.04,3.15-3.22,5.35-5.8,6.78-12.41,6.87-29.8,6.84-40.99-1.41-13.45-9.92-17.64-26.48-11.97-42.31,5.43-15.14,19.71-23.34,35.52-22,7.74.66,15.37,4.54,21.13,9.7.38.34.44.92.13,1.33l-7.04,9.59c-.17.22-.49.25-.69.07-3.1-2.8-5.9-4.94-9.73-6.13-17.78-5.5-31.67,9.82-26.41,27.36,3.1,10.34,10.19,15.38,21.27,15.11,3.11-.07,5.89-.45,8.32-1.13,1.39-.39,2.49-1.44,2.93-2.81.51-1.57.67-3.8.49-6.69-.03-.43-.38-.76-.81-.76h0Z"/>
  <path class="st0" d="M818.31,769.09c.2.23.58.09.58-.21v-39.99c0-.3.24-.54.54-.54h12.65c.27,0,.49.22.49.49v67.73c0,.25-.17.46-.41.51-4.25.93-7.6-.06-10.03-2.97-7.87-9.38-18.26-21.38-31.19-35.99-.21-.25-.62-.1-.62.23v38.18c0,.3-.25.55-.55.55h-12.4c-.35,0-.63-.28-.63-.62v-67.56c0-.33.24-.62.57-.68,3.79-.76,7.07.53,9.83,3.88,8.89,10.77,19.28,23.1,31.17,36.99h0Z"/>
  <path class="st0" d="M1047.52,796.61c.09.23-.06.48-.31.51-4.32.51-8.16.38-11.53-.37-3.79-.86-5.66-7.72-7.44-12.62-.11-.3-.3-.57-.55-.77-.81-.69-1.73-1.03-2.74-1.03-1.48-.01-7.74,0-18.77.03-2.6,0-4.39,1.14-5.38,3.4-1.36,3.12-2.76,6.76-4.2,10.91-.11.32-.41.53-.74.53h-13.36c-.38,0-.64-.38-.5-.73,4.47-11.57,12.96-33.15,25.46-64.76.77-1.92,2.44-3.69,4.89-3.68,3.57.02,6.17.07,7.82.16.36.02.68.24.81.58l26.54,67.84M1006.79,769.68c-.07.21.08.42.3.42l15.25-.02c.22,0,.37-.22.3-.43l-7.66-21.57c-.1-.28-.51-.28-.61,0l-7.58,21.6h0Z"/>
  <path class="st0" d="M1103.44,760.67c6.06,2.87,9.76,7.05,11.1,12.56,1.41,5.79-.16,13.35-4.19,17.87-3.6,4.03-8.69,5.16-14.65,5.35-10.17.31-21.24.3-33.19-.05-.23-.01-.41-.19-.41-.41v-67.39c0-.16.13-.29.29-.3,12.35-.31,23.3-.26,32.85.15,9.54.41,14.62,7.22,15.56,16.33.7,6.75-1.76,11.91-7.38,15.48-.16.1-.15.33.02.41M1075.9,741.06l-.04,14.04c-.01.25.19.44.43.44l12.3.05c4.81,0,8.72-3.24,8.73-7.27v-.32c.01-4.03-3.87-7.32-8.67-7.33l-12.3-.05c-.25,0-.44.2-.45.44M1075.6,767.88l-.08,15.92c0,.15.11.26.26.27l16.26.08c4.8.03,8.71-3.19,8.73-7.17l.02-2c.02-3.99-3.86-7.24-8.67-7.27l-16.26-.08c-.14-.01-.26.11-.26.25h0Z"/>
  <path class="st0" d="M1191.19,797.18h-13.6c-.29,0-.55-.2-.63-.48-1.26-4.43-2.79-8.43-4.59-11.99-.71-1.42-2.64-2.25-4.45-2.3-6.51-.15-13.58-.18-21.23-.09-.37.01-.71.24-.84.59l-4.65,12.49c-.44,1.18-1.57,1.96-2.83,1.96h-11.67c-.38,0-.65-.38-.51-.74,6.57-17.25,15.08-39.05,25.53-65.4,1.55-3.91,4.88-3.2,8.86-3.11,4.87.11,5.61,2.7,7.41,7.32,5.43,13.87,13.34,34.2,23.73,60.97.14.38-.13.78-.53.78M1150.79,769.67c-.08.23.09.47.33.47l15.49.06c.24,0,.41-.24.33-.47l-7.67-21.68c-.11-.31-.55-.31-.66,0l-7.82,21.62h0Z"/>
  <path class="st0" d="M928.27,796.57v-67.88c0-.25.21-.46.46-.46h12.43c.25,0,.46.21.46.46v54.85c0,.25.21.46.46.46h27.36c.25,0,.46.21.46.46v12.11c0,.25-.21.46-.46.46h-40.71c-.25,0-.46-.21-.46-.46h0Z"/>
  <path class="st0" d="M889.36,842.23c2.21,9.51-3.87,19.06-13.58,21.32-9.72,2.26-19.39-3.62-21.6-13.14-2.21-9.51,3.87-19.06,13.58-21.32,9.72-2.26,19.39,3.62,21.6,13.14M872.03,835.73c-5.47-.15-10.04,4.53-10.21,10.44-.16,5.92,4.14,10.84,9.61,10.99,5.47.15,10.04-4.53,10.21-10.44.16-5.92-4.14-10.84-9.61-10.99h0Z"/>
  <path class="st0" d="M966.72,829.49c0-.16.13-.29.29-.29l14.01.05c9.44.03,17.08,7.27,17.04,16.17v2.38c-.04,8.91-7.72,16.1-17.16,16.07l-14.01-.05c-.16,0-.29-.13-.29-.29l.12-34.04M974.23,837.26l-.1,18.74c0,.56.45,1.02,1.02,1.02l5.57.03c5.14.03,9.33-4.27,9.36-9.6v-1.48c.03-5.33-4.11-9.67-9.26-9.7l-5.57-.03c-.56,0-1.02.46-1.02,1.02h0Z"/>
  <path class="st0" d="M1066.11,863.56c-1.11,0-2.28.03-3.5.08-.36.02-.64-.29-.6-.65.81-6.52.74-12.46-3.03-18.49-1.79-2.85-4.63-7.06-8.52-12.62-.95-1.36.13-3.21,1.78-3.06l2.01.19c2.28.21,4.33,1.45,5.59,3.35,2.51,3.79,4.45,6.67,5.8,8.64.07.1.19.14.36.14s.28-.05.35-.14c1.34-1.98,3.24-4.88,5.72-8.7,1.24-1.92,3.28-3.17,5.55-3.41l2.01-.21c1.66-.17,2.75,1.68,1.81,3.05-3.84,5.6-6.63,9.83-8.39,12.7-3.71,6.07-3.72,12.01-2.85,18.52.05.36-.23.67-.59.65-1.22-.03-2.39-.05-3.5-.04h0Z"/>
  <path class="st0" d="M1100.29,838.38c-.21.19-.17.52.08.66,3.25,1.87,7.23,3.78,11.92,5.72,6.27,2.59,8.61,11.45,3,16.09-6.74,5.57-17.12,3.34-22.97-2.85-.24-.25-.23-.64.01-.89l3.63-3.77c.34-.35.87-.43,1.29-.19,3.64,2.06,8.05,5.55,12.01,1.54.23-.24.27-.61.08-.89-1.49-2.24-2.89-3.55-4.19-3.93-6.4-1.87-12.22-3.9-11.57-11.86.43-5.37,4.03-8.35,9.18-9.08,4.93-.7,9.7.63,14.33,4,.06.04.07.13.03.2l-4.25,5.78c-.14.19-.4.23-.6.1-4.75-3.35-8.74-3.56-11.98-.63h0Z"/>
  <path class="st0" d="M949.02,862.97c0,.24-.19.43-.43.43h-6.3c-.24,0-.43-.19-.43-.43v-33.46c0-.24.19-.43.43-.43h6.3c.24,0,.43.19.43.43v33.46h0Z"/>
  <path class="st0" d="M905.57,829.31h6.29c.25,0,.46.21.46.46v26.63c0,.25.21.46.46.46h14.07c.25,0,.46.21.46.46v5.58c0,.25-.21.46-.46.46h-21.28c-.25,0-.46-.21-.46-.46v-33.13c0-.25.21-.46.46-.46h0Z"/>
  <path class="st0" d="M1043.38,862.24c.3.72-.23,1.51-1.01,1.51h-4.98c-1.21,0-2.31-.72-2.79-1.84-1.37-3.2-2.66-4.83-3.86-4.89-3.66-.17-6.87-.21-9.62-.11-1.17.04-2.21.75-2.67,1.83l-1.53,3.58c-.36.85-1.21,1.41-2.14,1.41h-5.44c-.61,0-1.02-.62-.78-1.19l13.5-31.58c.11-.27.3-.49.54-.64,2.76-1.74,5.24-1.6,7.43.41.29.27.52.6.67.97l12.68,30.54M1025.93,850.19c1.29.03,2.38.01,3.28-.04.3-.01.5-.32.39-.6-1.21-3.11-2.32-6.06-3.35-8.85-.02-.07-.08-.1-.16-.11-.08,0-.14.04-.16.11-1.12,2.75-2.33,5.66-3.64,8.73-.12.28.07.59.37.61.9.08,1.99.13,3.27.15h0Z"/>
  <path class="st1" d="M960.24,421.8c0,9.67-7.84,17.51-17.51,17.51s-17.51-7.84-17.51-17.51,7.84-17.51,17.51-17.51,17.51,7.84,17.51,17.51h0Z"/>
</svg>